<svg xmlns="http://www.w3.org/2000/svg" viewBox="0 0 195 35" width="195" height="35">
	<style>
		tspan { white-space:pre }
		.shp0 { fill: #7159c1 } 
	</style>
	<g id="Mobile">
		<g id="Home">
			<g id="Group">
				<g id="logo">
					<g id="Group-3">
						<path id="" class="shp0" d="M0.43,19.54l10.94,7.12l7.63,-6.36l-11.03,-6.81zM26.7,28.03l-7.66,-6.34v-0.04l-0.02,0.02l-0.02,-0.02v0.04l-7.63,6.34l-3.28,-2.14v2.41l10.92,6.54v0.02l0.02,-0.02l0.02,0.02v-0.02l10.94,-6.54v-2.41zM0.43,7.47l7.54,6.03l11.03,-6.79l-7.63,-6.36zM19,20.3l7.66,6.36l10.92,-7.12l-7.54,-6.05zM19,6.71l11.03,6.79l7.54,-6.03l-10.92,-7.12z" />
						<path id="GumbBox " fill="#7159c1" d="M53.39 27.42Q51.22 27.42 49.36 26.71Q47.51 25.98 46.15 24.69Q44.79 23.39 43.99 21.57Q43.19 19.75 43.19 17.55Q43.19 15.4 44.06 13.65Q44.93 11.88 46.43 10.64Q47.93 9.39 50.03 8.7Q52.13 8.02 54.66 8.02Q56.01 8.02 57.53 8.21Q59.06 8.41 60.56 8.86L59.72 13.08Q58.36 12.59 57.24 12.42Q56.12 12.23 55.08 12.23Q53.69 12.23 52.59 12.62Q51.49 13 50.69 13.7Q49.9 14.4 49.49 15.39Q49.09 16.37 49.09 17.57Q49.09 18.89 49.36 19.95Q49.62 20.99 50.23 21.71Q50.83 22.44 51.7 22.82Q52.59 23.2 53.81 23.2L55.5 23.2L55.5 19.34L52.55 19.74L52.55 16.45L60.56 16.45L60.56 25.37Q59.59 25.95 58.68 26.34Q57.77 26.74 56.88 26.97Q56 27.21 55.13 27.32Q54.27 27.42 53.39 27.42ZM79.97 12.77L79.97 27L73.97 27Q74.12 26.55 74.23 25.85Q74.37 25.14 74.37 23.98Q73.94 24.75 73.3 25.38Q72.65 26.01 71.86 26.47Q71.08 26.92 70.2 27.17Q69.33 27.42 68.45 27.42Q67.47 27.42 66.57 27.08Q65.69 26.74 65.01 26Q64.32 25.26 63.91 24.1Q63.52 22.94 63.52 21.3L63.52 12.77L69.42 12.77L69.42 19.88Q69.42 20.87 69.57 21.56Q69.73 22.24 69.99 22.68Q70.25 23.1 70.6 23.3Q70.94 23.48 71.32 23.48Q71.77 23.48 72.22 23.31Q72.68 23.12 73.05 22.82Q73.43 22.52 73.69 22.11Q73.97 21.7 74.06 21.24L74.06 12.77L79.97 12.77ZM84.46 27L84.44 12.77L90.3 12.77Q90.08 13.53 89.99 14.12Q89.91 14.71 89.91 15.45Q90.25 14.81 90.83 14.24Q91.43 13.66 92.14 13.24Q92.86 12.8 93.65 12.51Q94.46 12.21 95.22 12.21Q95.87 12.21 96.5 12.42Q97.13 12.63 97.69 12.99Q98.25 13.34 98.73 13.91Q99.2 14.46 99.55 15.27Q99.94 14.58 100.55 14.01Q101.15 13.45 101.91 13.05Q102.66 12.64 103.49 12.43Q104.33 12.21 105.19 12.21Q106.3 12.21 107.32 12.54Q108.35 12.85 109.14 13.57Q109.94 14.28 110.15 15.4Q110.34 16.51 110.34 18.13L110.37 27L105 27L104.98 19.56Q104.98 18.59 104.81 17.92Q104.64 17.24 104.35 16.81Q104.06 16.37 103.66 16.18Q103.28 15.98 102.86 15.98Q102.46 15.98 102.01 16.18Q101.56 16.37 101.19 16.73Q100.83 17.09 100.57 17.59Q100.34 18.09 100.34 18.68L100.36 27L94.88 27L94.85 19.56Q94.85 18.56 94.64 17.89Q94.44 17.2 94.13 16.77Q93.82 16.33 93.44 16.15Q93.07 15.95 92.74 15.95Q92.31 15.95 91.85 16.14Q91.4 16.31 91.03 16.61Q90.67 16.91 90.44 17.32Q90.21 17.73 90.21 18.19L90.24 27L84.46 27ZM125.2 27.42Q124.45 27.42 123.71 27.24Q122.97 27.04 122.31 26.68Q121.66 26.33 121.1 25.81Q120.56 25.3 120.19 24.65L120.19 27L114.71 27L114.71 6.75L120.19 6.75L120.19 14.73Q120.52 14.16 121.08 13.7Q121.64 13.24 122.33 12.91Q123.03 12.58 123.8 12.39Q124.6 12.21 125.39 12.21Q126.15 12.21 126.92 12.39Q127.68 12.58 128.37 12.95Q129.05 13.32 129.63 13.9Q130.22 14.48 130.66 15.31Q131.09 16.14 131.33 17.23Q131.58 18.31 131.58 19.68Q131.58 21.7 131.06 23.16Q130.54 24.63 129.66 25.58Q128.77 26.51 127.61 26.97Q126.47 27.42 125.2 27.42ZM122.72 23.49Q123.15 23.49 123.66 23.39Q124.17 23.28 124.62 22.9Q125.07 22.5 125.37 21.75Q125.68 20.99 125.68 19.68Q125.68 18.75 125.53 18.1Q125.4 17.46 125.16 17.03Q124.94 16.61 124.63 16.39Q124.34 16.15 124.02 16.04Q123.7 15.93 123.37 15.91Q123.05 15.89 122.78 15.89Q122.27 15.89 121.8 16.1Q121.34 16.29 120.98 16.74Q120.63 17.18 120.4 17.89Q120.19 18.6 120.19 19.63Q120.19 20.7 120.4 21.44Q120.61 22.17 120.96 22.64Q121.31 23.08 121.76 23.3Q122.22 23.49 122.72 23.49ZM135.09 27L135.09 8.36L141.36 8.36Q142.18 8.36 143.16 8.45Q144.15 8.54 145.14 8.71Q146.12 8.89 147.05 9.2Q147.97 9.51 148.68 10.02Q149.41 10.53 149.83 11.29Q150.26 12.04 150.26 13.08Q150.26 13.7 150.12 14.32Q149.97 14.92 149.59 15.44Q149.22 15.95 148.56 16.33Q147.92 16.72 146.9 16.88Q148.01 16.94 148.87 17.39Q149.74 17.82 150.33 18.48Q150.92 19.14 151.23 19.95Q151.54 20.74 151.54 21.52Q151.54 22.56 151.12 23.55Q150.7 24.52 149.7 25.3Q148.71 26.06 147.07 26.54Q145.44 27 143.01 27L135.09 27ZM141 19.41L141 23.63L143.38 23.63Q144.52 23.63 145.07 23.04Q145.64 22.45 145.64 21.52Q145.64 20.96 145.44 20.57Q145.25 20.17 144.74 19.92Q144.23 19.66 143.32 19.54Q142.42 19.41 141 19.41ZM141 16.03L142.84 16.03Q143.46 16.03 143.98 15.86Q144.49 15.68 144.86 15.39Q145.23 15.1 145.43 14.71Q145.64 14.33 145.64 13.92Q145.64 13.29 145.39 12.88Q145.14 12.47 144.58 12.23Q144.03 12 143.14 11.9Q142.26 11.81 141 11.81L141 16.03ZM162.1 27.42Q160.49 27.42 159.24 27.12Q158 26.82 157.07 26.29Q156.13 25.75 155.47 25.01Q154.83 24.27 154.42 23.41Q154.02 22.54 153.84 21.59Q153.67 20.63 153.67 19.66Q153.67 18.72 153.84 17.8Q154.02 16.88 154.42 16.06Q154.83 15.23 155.47 14.53Q156.12 13.83 157.05 13.33Q157.99 12.81 159.24 12.51Q160.49 12.21 162.1 12.21Q163.71 12.21 164.96 12.51Q166.22 12.81 167.15 13.33Q168.09 13.83 168.73 14.53Q169.38 15.23 169.78 16.06Q170.18 16.88 170.36 17.8Q170.54 18.72 170.54 19.66Q170.54 20.63 170.36 21.59Q170.18 22.54 169.78 23.41Q169.38 24.27 168.72 25.01Q168.07 25.75 167.14 26.29Q166.2 26.82 164.95 27.12Q163.71 27.42 162.1 27.42ZM162.1 23.47Q162.81 23.47 163.29 23.15Q163.78 22.82 164.07 22.29Q164.37 21.75 164.5 21.08Q164.63 20.4 164.63 19.68Q164.63 19.01 164.5 18.36Q164.37 17.72 164.07 17.2Q163.78 16.69 163.29 16.39Q162.81 16.07 162.1 16.07Q161.39 16.07 160.9 16.39Q160.43 16.69 160.13 17.2Q159.83 17.72 159.7 18.36Q159.57 19.01 159.57 19.68Q159.57 20.4 159.69 21.08Q159.82 21.75 160.11 22.29Q160.42 22.82 160.9 23.15Q161.39 23.47 162.1 23.47ZM189.66 12.77L185.57 19.59L190.32 27L183.86 27L181.1 22.27L178.62 27L173.84 27L177.88 19.67L173.14 12.77L179.6 12.77L182.48 17.11L184.87 12.77L189.66 12.77Z" />
					</g>
				</g>
			</g>
		</g>
	</g>
</svg>